<?xml version="1.0" standalone="no"?>
<!DOCTYPE svg PUBLIC "-//W3C//DTD SVG 20010904//EN"
 "http://www.w3.org/TR/2001/REC-SVG-20010904/DTD/svg10.dtd">
<svg version="1.0" xmlns="http://www.w3.org/2000/svg"
 width="375.000000pt" height="375.000000pt" viewBox="0 0 375.000000 375.000000"
 preserveAspectRatio="xMidYMid meet">

<g transform="translate(0.000000,375.000000) scale(0.100000,-0.100000)"
fill="#000000" stroke="none">
<path d="M0 1875 l0 -1875 1870 0 1870 0 0 1875 0 1875 -1870 0 -1870 0 0
-1875z m2115 1368 c55 -8 152 -33 215 -54 63 -22 122 -41 130 -42 8 -1 17 -5
20 -8 3 -4 32 -20 66 -37 233 -117 469 -342 607 -577 201 -344 252 -785 135
-1180 -37 -127 -122 -301 -206 -422 -66 -94 -195 -235 -264 -287 -21 -16 -35
-32 -32 -37 3 -5 -1 -6 -9 -3 -9 3 -22 -4 -31 -18 -9 -13 -20 -22 -24 -22 -4
1 -27 -12 -52 -29 -64 -44 -233 -126 -313 -152 -37 -12 -64 -25 -60 -30 5 -4
3 -5 -4 -2 -6 4 -49 -2 -95 -13 -138 -33 -327 -46 -464 -32 -122 13 -258 40
-332 66 -23 8 -46 16 -50 17 -36 10 -179 77 -215 101 -15 11 -27 16 -27 11 0
-4 -4 -3 -8 2 -4 6 -39 32 -79 58 -347 233 -573 601 -633 1035 -30 210 2 490
79 701 17 46 28 88 24 94 -3 5 -2 7 4 4 8 -5 34 40 47 83 6 16 68 112 107 166
26 34 48 67 50 73 7 18 161 171 221 218 32 25 55 50 51 56 -3 5 -1 7 4 4 6 -4
42 14 79 39 132 89 294 158 470 200 186 45 378 50 589 17z"/>
<path d="M1740 3180 c-266 -22 -514 -118 -734 -284 -95 -71 -266 -255 -266
-285 0 -5 -4 -11 -8 -13 -12 -5 -90 -133 -116 -190 -103 -231 -143 -435 -133
-686 8 -216 51 -399 136 -577 57 -120 118 -218 131 -210 6 3 7 0 4 -8 -3 -9 4
-22 18 -31 12 -9 19 -16 15 -16 -4 0 35 -44 87 -98 83 -86 127 -120 276 -218
43 -28 175 -89 250 -116 153 -54 381 -85 540 -73 368 26 658 154 900 395 93
94 210 243 210 269 0 5 4 11 8 13 12 5 87 164 115 244 57 159 72 262 72 484
-1 173 -4 221 -23 307 -36 166 -94 312 -183 463 -73 124 -236 295 -370 389
-84 59 -246 144 -260 135 -5 -3 -9 -1 -9 4 0 12 -138 57 -235 77 -73 15 -271
36 -315 34 -14 -1 -63 -5 -110 -9z m1115 -788 c4 -11 -8 -30 -38 -58 l-43 -42
77 -234 c42 -128 76 -234 75 -235 0 0 -14 -3 -30 -5 -27 -3 -29 0 -50 67 l-22
70 -71 3 -72 3 -21 -71 c-21 -69 -21 -70 -56 -70 -30 0 -33 2 -26 18 11 20 71
194 76 220 1 9 8 29 14 43 9 22 28 87 37 124 9 42 26 64 42 58 17 -6 17 -5 1
14 -10 11 -18 23 -18 27 0 14 95 94 106 89 7 -2 15 -12 19 -21z m-1777 -117
c63 -19 133 -85 150 -143 35 -117 -11 -239 -110 -292 -60 -32 -166 -33 -224
-3 -100 53 -140 149 -118 283 9 56 78 128 144 150 67 24 92 24 158 5z m490
-192 c-3 -213 -6 -226 -59 -257 -59 -35 -154 -3 -166 55 -3 16 -6 31 -7 35 0
4 9 11 22 15 19 7 24 4 31 -14 21 -54 86 -64 110 -18 7 12 11 92 11 200 l0
181 31 0 31 0 -4 -197z m367 180 c4 -10 9 -27 11 -39 2 -12 31 -104 64 -205
33 -101 60 -187 60 -191 0 -5 -13 -8 -30 -8 -27 0 -31 4 -41 45 -6 25 -15 45
-20 45 -5 0 -6 6 -4 13 11 28 -11 38 -81 35 l-68 -3 -20 -67 c-18 -66 -20 -68
-51 -68 l-32 0 53 162 c29 89 51 164 49 167 -3 2 -1 9 4 15 4 6 16 35 25 64
16 46 21 52 46 52 17 0 30 -7 35 -17z m355 -188 l0 -205 94 0 93 0 -4 -24 c-5
-24 -7 -25 -124 -28 l-119 -3 0 233 0 232 30 0 30 0 0 -205z m-1402 -344 c30
-1 28 -19 -3 -27 -23 -6 -24 -10 -27 -97 -2 -53 -7 -92 -13 -92 -6 0 -11 39
-13 92 -3 87 -4 91 -27 97 -14 4 -25 10 -25 16 0 9 43 17 70 14 8 -2 25 -3 38
-3z m197 -12 c0 -10 -13 -14 -40 -14 -38 0 -40 -2 -43 -33 -3 -33 -2 -34 30
-30 24 2 33 -1 33 -12 0 -10 -10 -14 -32 -14 -31 1 -33 0 -33 -35 0 -35 1 -37
35 -36 19 1 40 -2 46 -6 24 -14 -2 -25 -58 -24 l-58 0 0 105 c0 58 0 107 1
110 1 3 28 4 61 4 42 -1 58 -6 58 -15z m305 0 c0 -5 -13 -9 -29 -9 -47 0 -61
-10 -61 -41 0 -26 3 -29 35 -29 19 0 35 -4 35 -9 0 -5 -16 -12 -35 -15 -32 -6
-35 -10 -35 -41 0 -34 0 -35 43 -32 31 1 42 -2 42 -12 0 -11 -15 -14 -60 -15
l-59 -1 1 110 c1 61 2 110 2 110 51 0 121 -9 121 -16z m100 9 c6 -7 23 -30 40
-51 l29 -38 3 48 c2 34 7 48 18 48 9 0 14 -9 13 -22 0 -13 -1 -63 -2 -113 -1
-75 -3 -88 -16 -84 -9 4 -15 19 -15 36 0 19 -12 46 -32 71 l-33 41 -5 -74 c-4
-56 -9 -75 -19 -75 -12 0 -14 21 -13 110 0 61 1 111 1 113 2 7 22 0 31 -10z
m290 -101 c33 -94 35 -107 19 -107 -10 0 -21 12 -28 30 -8 24 -16 30 -38 30
-23 0 -31 -6 -40 -30 -6 -16 -18 -30 -27 -30 -9 0 -16 2 -16 4 0 3 52 164 65
204 11 31 31 0 65 -101z m143 86 c8 -16 20 -46 27 -68 7 -22 16 -44 20 -48 4
-5 18 21 31 58 21 61 43 94 54 83 8 -8 35 -209 30 -219 -13 -20 -24 -6 -30 39
-14 99 -19 102 -45 31 -13 -35 -26 -68 -31 -73 -9 -10 -23 15 -45 80 -9 27
-19 53 -23 57 -9 9 -24 -110 -16 -123 6 -9 -25 -23 -33 -15 -5 5 17 204 25
218 8 14 23 7 36 -20z m410 -13 c52 -58 30 -150 -43 -180 -50 -21 -113 2 -134
49 -31 68 -8 140 54 164 35 14 95 -2 123 -33z m159 30 c15 0 34 -7 42 -16 21
-20 20 -68 0 -89 -15 -15 -15 -19 0 -58 20 -52 20 -58 2 -51 -7 3 -21 23 -31
45 -19 41 -54 55 -56 22 -1 -10 -2 -29 -2 -43 -1 -14 -8 -25 -16 -25 -12 0
-15 20 -14 110 1 61 2 112 2 114 1 2 11 1 24 -3 12 -3 34 -6 49 -6z m258 -11
c0 -8 -23 -14 -44 -10 -26 5 -46 -12 -46 -40 0 -27 3 -29 35 -29 19 0 35 -4
35 -10 0 -9 -23 -14 -57 -13 -8 1 -13 -13 -13 -37 l0 -38 43 2 c30 1 42 -3 42
-13 0 -17 -114 -24 -116 -7 -1 14 -1 211 0 211 51 0 121 -9 121 -16z m134 15
c9 -3 16 -13 16 -21 0 -11 -7 -13 -24 -9 -42 10 -41 -14 3 -57 36 -34 42 -45
39 -76 -2 -27 -10 -39 -30 -51 -25 -13 -31 -13 -55 0 -29 16 -44 50 -22 50 7
0 20 -7 29 -15 10 -9 25 -13 34 -9 28 11 18 49 -24 88 -43 39 -50 65 -24 90
16 17 33 20 58 10z m-926 -441 c-2 -50 -7 -78 -15 -81 -10 -3 -13 19 -13 86 0
49 3 92 7 96 15 15 24 -27 21 -101z m-218 57 c0 -11 5 -20 10 -20 6 0 10 -7
10 -15 0 -8 -4 -15 -10 -15 -5 0 -10 -20 -10 -45 0 -25 -4 -45 -10 -45 -5 0
-10 17 -10 38 0 21 -5 43 -12 50 -9 9 -9 15 0 24 7 7 12 20 12 30 0 10 5 18
10 18 6 0 10 -9 10 -20z m524 11 c3 -5 -1 -14 -9 -21 -10 -8 -15 -31 -15 -71
0 -33 -4 -59 -10 -59 -15 0 -12 128 3 145 14 17 24 18 31 6z m-843 -52 c25
-40 -4 -106 -42 -96 -12 3 -19 0 -20 -9 -1 -8 -3 -18 -4 -24 -1 -5 -3 -15 -4
-21 0 -5 -5 -7 -11 -4 -5 3 -10 44 -10 90 l0 83 41 -2 c22 -1 45 -9 50 -17z
m127 9 c5 -7 12 -32 15 -54 6 -41 6 -42 -29 -47 -42 -7 -60 -1 -69 21 -8 21
16 44 49 45 14 1 26 6 26 11 0 5 -13 6 -29 3 -34 -7 -45 1 -30 20 14 16 53 17
67 1z m107 -8 c0 -8 -7 -14 -15 -12 -9 1 -7 -5 8 -17 27 -23 28 -52 3 -68 -15
-9 -23 -8 -40 3 -27 20 -18 36 17 29 26 -5 26 -5 4 6 -28 15 -40 57 -21 70 20
13 44 6 44 -11z m227 3 c10 -9 18 -24 18 -35 0 -14 -8 -18 -41 -18 -26 0 -38
-4 -33 -11 4 -6 20 -8 40 -4 42 7 45 -9 5 -29 -27 -14 -30 -14 -55 9 -31 29
-33 58 -6 85 24 24 47 25 72 3z m202 0 c32 -26 22 -53 -20 -53 -19 0 -34 -5
-34 -11 0 -7 12 -9 35 -5 21 4 35 3 35 -3 0 -12 -33 -31 -54 -31 -22 0 -56 36
-56 60 0 24 34 60 56 60 9 0 26 -8 38 -17z m96 0 c2 -2 -1 -7 -7 -11 -7 -4
-14 -24 -15 -45 -5 -57 -23 -44 -26 19 -3 54 -2 55 20 49 13 -4 25 -9 28 -12z
m183 -4 c8 -11 13 -29 10 -40 -3 -10 0 -26 7 -34 11 -13 8 -15 -17 -15 -16 0
-34 -5 -39 -10 -11 -11 -54 22 -54 40 0 17 46 41 65 34 13 -5 16 -4 11 5 -5 8
-19 10 -37 6 -30 -7 -37 3 -17 23 19 19 55 14 71 -9z m-1225 -46 c-65 -2 -171
-2 -235 0 -65 1 -12 3 117 3 129 0 182 -2 118 -3z m1685 0 c-62 -2 -165 -2
-230 0 -65 1 -14 3 112 3 127 0 180 -2 118 -3z"/>
<path d="M2726 2102 c-14 -46 -26 -85 -26 -88 0 -2 23 -4 50 -4 33 0 50 4 50
13 0 6 -11 46 -24 87 l-23 75 -27 -83z"/>
<path d="M950 2220 c0 -5 4 -10 9 -10 6 0 13 5 16 10 3 6 -1 10 -9 10 -9 0
-16 -4 -16 -10z"/>
<path d="M1030 2220 c0 -5 10 -10 23 -10 13 0 28 -5 34 -11 6 -6 17 -9 25 -7
7 3 -4 12 -26 22 -45 19 -56 20 -56 6z"/>
<path d="M920 2211 c0 -5 -8 -12 -17 -14 -15 -4 -15 -5 -2 -6 9 0 22 6 29 14
9 10 9 15 1 15 -6 0 -11 -4 -11 -9z"/>
<path d="M981 2171 c-6 -10 -7 -22 -3 -26 4 -4 -4 -4 -18 0 -27 8 -28 8 -49 6
-10 -1 -12 -10 -7 -36 5 -27 4 -35 -7 -35 -8 0 -20 -7 -27 -15 -10 -11 -9 -18
3 -30 9 -8 21 -15 27 -15 8 0 9 -10 5 -31 -8 -37 7 -52 41 -39 18 7 24 5 29
-10 6 -20 31 -33 47 -24 5 3 7 13 4 21 -3 8 -1 11 4 8 6 -3 10 -1 10 5 0 7 6
8 19 0 38 -20 69 18 39 48 -9 9 -7 13 8 18 49 18 52 48 6 65 -19 7 -22 13 -14
21 16 16 15 45 0 51 -7 2 -23 1 -34 -4 -17 -6 -24 -3 -33 17 -13 29 -36 31
-50 5z"/>
<path d="M850 2151 c-12 -24 -13 -34 -1 -27 9 6 22 46 15 46 -2 0 -8 -9 -14
-19z"/>
<path d="M882 2150 c0 -14 2 -19 5 -12 2 6 2 18 0 25 -3 6 -5 1 -5 -13z"/>
<path d="M1140 2154 c0 -12 7 -25 16 -28 10 -4 14 -14 11 -26 -3 -11 -1 -20 4
-20 15 0 10 34 -11 65 -18 27 -20 28 -20 9z"/>
<path d="M1121 2144 c0 -11 3 -14 6 -6 3 7 2 16 -1 19 -3 4 -6 -2 -5 -13z"/>
<path d="M825 2079 c-4 -6 -5 -12 -2 -15 2 -3 7 2 10 11 7 17 1 20 -8 4z"/>
<path d="M826 2013 c9 -38 14 -42 14 -10 0 14 -5 29 -10 32 -7 4 -8 -3 -4 -22z"/>
<path d="M1166 1997 c3 -8 -2 -20 -11 -27 -8 -7 -15 -20 -15 -29 0 -10 7 -5
20 14 22 32 26 55 10 55 -5 0 -7 -6 -4 -13z"/>
<path d="M845 1960 c3 -5 11 -10 16 -10 6 0 7 5 4 10 -3 6 -11 10 -16 10 -6 0
-7 -4 -4 -10z"/>
<path d="M881 1944 c0 -11 3 -14 6 -6 3 7 2 16 -1 19 -3 4 -6 -2 -5 -13z"/>
<path d="M906 1896 c28 -20 79 -33 70 -17 -4 6 -16 11 -26 11 -10 0 -22 5 -25
10 -3 6 -14 10 -23 10 -14 0 -13 -3 4 -14z"/>
<path d="M1085 1900 c-3 -5 -17 -10 -30 -10 -13 0 -27 -4 -30 -10 -3 -5 2 -10
12 -10 24 1 93 39 71 40 -9 0 -20 -4 -23 -10z"/>
<path d="M1881 2138 c-7 -23 -13 -50 -15 -58 -2 -8 -8 -26 -13 -40 -10 -24 -9
-25 39 -28 28 -2 52 -1 55 1 5 6 -32 129 -45 154 -7 11 -12 4 -21 -29z"/>
<path d="M1720 1646 c-13 -36 -13 -36 10 -36 17 0 19 4 14 28 -9 38 -12 39
-24 8z"/>
<path d="M2219 1699 c-26 -10 -49 -45 -49 -75 0 -23 30 -75 40 -69 5 3 11 1
15 -5 11 -18 56 -10 80 15 64 63 -1 166 -86 134z"/>
<path d="M2456 1703 c-12 -12 -6 -73 7 -73 48 1 69 25 49 58 -9 14 -47 24 -56
15z"/>
<path d="M1367 1293 c-11 -10 -8 -41 4 -49 6 -3 18 1 27 9 13 13 13 19 2 31
-14 17 -23 20 -33 9z"/>
<path d="M1490 1251 c0 -6 9 -9 20 -8 11 1 20 5 20 9 0 4 -9 8 -20 8 -11 0
-20 -4 -20 -9z"/>
<path d="M1827 1293 c-3 -5 6 -9 19 -9 13 -1 21 2 18 7 -6 11 -31 12 -37 2z"/>
<path d="M2026 1291 c-3 -5 6 -8 19 -8 14 0 25 3 25 8 0 5 -9 9 -19 9 -11 0
-22 -4 -25 -9z"/>
<path d="M2300 1249 c0 -11 21 -11 39 0 9 6 5 9 -13 9 -14 0 -26 -4 -26 -9z"/>
</g>
</svg>
